<?xml version="1.0" encoding="UTF-8" standalone="no"?>
<svg
   width="512"
   height="512"
   viewBox="338.5 223.2 582.9 582.9"
   version="1.1"
   id="svg32"
   sodipodi:docname="image.svg"
   inkscape:version="1.4.4 (dcaf3e7d9e, 2026-05-05)"
   xmlns:inkscape="http://www.inkscape.org/namespaces/inkscape"
   xmlns:sodipodi="http://sodipodi.sourceforge.net/DTD/sodipodi-0.dtd"
   xmlns="http://www.w3.org/2000/svg"
   xmlns:svg="http://www.w3.org/2000/svg">
  <sodipodi:namedview
     id="namedview32"
     pagecolor="#ffffff"
     bordercolor="#000000"
     borderopacity="0.25"
     inkscape:showpageshadow="2"
     inkscape:pageopacity="0.0"
     inkscape:pagecheckerboard="0"
     inkscape:deskcolor="#d1d1d1"
     inkscape:zoom="1.5015949"
     inkscape:cx="586.70951"
     inkscape:cy="654.3043"
     inkscape:window-width="2270"
     inkscape:window-height="1393"
     inkscape:window-x="26"
     inkscape:window-y="23"
     inkscape:window-maximized="0"
     inkscape:current-layer="svg32" />
  <path
     fill="#102A40"
     d="M748.864 300.862C775.434 302.064 780.901 332.336 756.963 343.838L756.975 380.986C787.729 378.112 832.254 374.449 856.079 397.98C872.161 413.864 872.564 440.266 872.496 461.437C877.981 462.685 880.984 463.405 885.66 466.978C909.406 485.124 907.327 553.576 872.47 556.806L872.578 652.416C872.588 658.044 872.679 663.721 872.77 669.406L872.771 669.455C872.923 678.897 873.075 688.362 872.851 697.662C872.366 702.721 872.216 710.001 866.089 711.606C859.806 713.253 851.84 713.035 844.631 712.838L844.627 712.838C842.435 712.778 840.313 712.72 838.329 712.717L783.543 712.716C731.341 712.715 674.84 713.509 640.564 760.128C637.779 763.916 618.654 763.352 606.551 762.995L606.485 762.993C602.669 762.881 599.558 762.789 597.889 762.864C592.911 763.087 588.803 757.828 585.349 753.405C584.4 752.19 583.5 751.037 582.644 750.079C561.789 726.716 526.453 716.064 496.028 713.921C487.435 712.461 460.055 712.652 432.309 712.846L432.292 712.846C399.405 713.075 366.012 713.308 362.785 710.798C361.07 709.464 359.418 706.909 359.097 704.752C358.257 699.108 358.441 692.897 358.62 686.862L358.62 686.849C358.695 684.346 358.768 681.874 358.767 679.485L358.773 625.066L358.723 446.716C358.728 445.921 358.725 445.135 358.722 444.362C358.689 435.684 358.663 428.666 370.008 428.362C373.292 428.274 376.669 428.383 380.001 428.491L380.026 428.492C381.182 428.529 382.332 428.566 383.471 428.595C383.515 424.235 383.41 419.824 383.304 415.404L383.303 415.387C383.126 408.056 382.95 400.697 383.453 393.5C383.69 390.129 384.492 385.823 387.302 383.585C395.164 377.32 453.208 382.783 466.486 384.415C513.645 390.211 584.391 407.719 614.845 446.71C616.689 444.175 618.815 441.027 620.665 438.626C645.137 406.867 704.385 388.228 743.23 383.036C743.283 378.272 743.257 373.454 743.231 368.625L743.23 368.427L743.23 368.372C743.186 360.212 743.142 352.025 743.464 344.024C721.223 332.772 724.442 305.202 748.864 300.862Z"
     id="path1" />
  <path
     fill="#FEFEFE"
     d="M623.653 530.452C623.658 527.462 623.585 523.236 623.499 518.313L623.499 518.284C623.168 499.139 622.655 469.477 625.814 460.863C628.244 454.241 633.37 448.032 638.308 443.11C672.282 409.241 746.207 395.294 792.747 395.608C808.945 395.717 831.999 396.888 844.24 409.205C856.749 421.793 856.254 441.938 855.829 459.247L855.829 459.248C855.765 461.854 855.703 464.397 855.686 466.839C836.197 486.682 834.571 532.059 854.569 551.404C854.937 551.76 855.31 552.11 855.688 552.455C855.688 563.349 855.724 574.306 855.759 585.284L855.76 585.426C855.835 608.479 855.91 631.621 855.651 654.461C807.37 641.764 734.053 647.771 690.949 673.911C662.874 690.937 645.09 712.671 633.01 742.93C632.669 743.75 632.462 744.388 631.999 745.136C630.042 746.467 601.255 746.692 599.572 745.879L598.794 742.913C582.828 705.257 559.822 681.676 521.544 666.49C481.579 650.636 442.445 647.829 400.099 649.36L400.095 397.831C462.539 397.044 547.116 407.047 596.946 450.84C604.496 457.475 607.52 464.842 607.495 474.795C607.449 493.285 607.458 511.882 607.432 530.417L623.653 530.452Z"
     id="path2" />
  <defs
     id="defs3">
    <linearGradient
       id="gradient_0"
       gradientUnits="userSpaceOnUse"
       x1="619.80103"
       y1="745.05798"
       x2="611.44397"
       y2="572.04401">
      <stop
         offset="0"
         stop-color="#015287"
         id="stop2" />
      <stop
         offset="1"
         stop-color="#2BD0C2"
         id="stop3" />
    </linearGradient>
  </defs>
  <path
     fill="url(#gradient_0)"
     d="M596.242 584.364C599.86 581.388 600.48 574.244 603.1 572.573C606.37 573.954 611.745 585.272 611.766 588.512L612.542 589.523C612.952 600.243 612.845 611.801 612.741 623.017C612.704 627.064 612.667 631.067 612.654 634.969C593.966 643.121 606.652 665.734 621.518 656.97C630.996 651.382 630.331 639.618 619.049 635.069C619.405 633.233 619.373 628.203 619.35 624.528L619.35 624.515L619.349 624.293C619.341 623.077 619.335 622.026 619.346 621.311C619.411 617.165 619.37 612.993 619.329 608.813L619.329 608.804C619.239 599.712 619.149 590.582 620.143 581.6C624.021 578.774 626.748 577.318 629.094 573.186C631.113 576.967 632.005 581.084 634.911 583.73C638.702 590.498 642.994 601.329 646.586 608.828C652.983 622.127 659.955 635.142 667.482 647.835C649.477 670.391 640.132 697.524 635.017 725.593C634.397 728.993 632.599 739.677 633.01 742.93C632.669 743.75 632.462 744.388 631.999 745.136C630.042 746.467 601.255 746.692 599.572 745.879L598.794 742.913C598.993 739.762 597.614 730.91 596.995 727.416C591.939 698.851 582.323 670.49 563.926 647.75C574.111 630.055 583.376 612.592 591.679 593.92C593.096 590.734 594.65 587.469 596.242 584.364Z"
     id="path3" />
  <path
     fill="#44596C"
     d="M599.572 745.879C605.111 744.097 626.702 744.163 631.999 745.136C630.042 746.467 601.255 746.692 599.572 745.879Z"
     id="path4" />
  <path
     fill="#35C8B6"
     d="M619.049 635.069C618.199 631.189 618.09 552.299 619.03 547.491L619.801 547.001C621.366 548.645 633.364 579.452 634.911 583.73C632.005 581.084 631.113 576.967 629.094 573.186C626.748 577.318 624.021 578.774 620.143 581.6C619.149 590.582 619.239 599.712 619.329 608.804L619.329 608.813C619.37 612.993 619.411 617.165 619.346 621.311C619.335 622.026 619.341 623.077 619.349 624.293L619.35 624.515L619.35 624.528C619.373 628.203 619.405 633.233 619.049 635.069Z"
     id="path5" />
  <path
     fill="#35C8B6"
     d="M596.242 584.364C598.883 577.455 601.968 570.522 604.719 563.611C606.226 559.826 609.438 550.401 611.243 547.278L612.05 547.282C612.913 549.591 613.021 585.838 612.542 589.523L611.766 588.512C611.745 585.272 606.37 573.954 603.1 572.573C600.48 574.244 599.86 581.388 596.242 584.364Z"
     id="path6" />
  <path
     fill="#102A40"
     d="M693.344 461.688L693.384 461.688C694.515 461.697 695.533 461.705 696.347 461.703L726.119 461.678L764.851 461.675C766.731 461.676 768.614 461.65 770.495 461.623C782.515 461.453 794.435 461.285 804.857 468.32C812.968 473.851 818.531 482.395 820.307 492.05C821.819 499.938 821.764 530.96 820.076 538.669C818.986 543.626 816.935 548.321 814.041 552.489C807.786 561.498 799.484 565.776 789.005 567.657C776.16 568.171 763.065 568.052 749.992 567.933L749.874 567.932C739.992 567.842 730.124 567.753 720.386 567.939C706.358 568.208 691.378 568.329 677.459 567.269C668.918 566.618 658.973 560.004 654.105 553.124C647.098 543.944 646.988 534.558 646.871 524.548C646.841 521.982 646.811 519.375 646.663 516.719C645.202 490.37 649.781 466.413 680.967 461.945C683.709 461.617 689.256 461.658 693.344 461.688Z"
     id="path7" />
  <path
     fill="#24CFE3"
     d="M766.314 494.873C780.669 493.857 784.725 504.482 784.394 516.911C784.132 526.762 782.023 533.11 772.083 536.416C765.337 536.751 758.132 534.363 756.09 527.644C752.209 514.875 752.99 500.55 766.314 494.873Z"
     id="path8" />
  <path
     fill="#24CFE3"
     d="M688.177 494.863C701.838 494.178 705.789 505.162 705.338 516.932C704.961 526.79 702.969 533.326 692.895 536.512C679.118 537.011 674.665 526.854 675.19 514.58C675.621 504.483 678.06 498.096 688.177 494.863Z"
     id="path9" />
  <path
     fill="#44596C"
     d="M442.318 462.985C446.343 462.694 454.815 463.483 459.791 463.947C460.189 463.984 460.564 464.019 460.912 464.051C486.923 466.224 512.605 471.332 537.467 479.278C537.931 479.426 538.456 479.587 539.029 479.763C546.992 482.212 564.122 487.481 552.532 496.728C548.004 496.225 533.565 490.572 527.874 488.909C511.158 484.063 494.113 480.436 476.872 478.059C469.999 477.153 444.141 476.515 440.287 472.882C439.102 471.765 438.513 470.456 438.655 468.795C438.883 466.148 440.419 464.638 442.318 462.985Z"
     id="path10" />
  <path
     fill="#44596C"
     d="M443.188 504.696C475.104 506.465 506.141 511.155 536.596 521.19C537.18 521.383 537.887 521.602 538.683 521.848C546.899 524.392 564.503 529.844 551.866 538.773C544.261 537.34 534.746 532.927 527.051 530.781C501.752 523.706 475.591 518.574 449.29 517.581C439.329 517.204 433.712 510.803 443.188 504.696Z"
     id="path11" />
  <path
     fill="#44596C"
     d="M442.733 546.958C472.364 548.053 501.729 552.962 530.105 561.563C530.513 561.687 530.98 561.824 531.494 561.975C539.235 564.249 557.723 569.681 544.94 578.556C541.551 578.308 521.994 571.626 516.264 570.152C494.853 564.45 472.915 560.954 450.792 559.718C447.195 559.484 441.925 559.576 439.613 556.364C436.8 552.454 439.688 549.232 442.733 546.958Z"
     id="path12" />
  <path
     fill="#44596C"
     d="M444.218 588.706C461.616 589.739 480.472 591.998 497.578 595.739C501.069 596.502 504.195 597.973 505.974 601.177C506.581 605.926 504.809 607.171 500.863 608.802C489.017 606.233 477.057 604.223 465.023 602.78C458.033 602 449.668 601.822 442.923 600.611C437.77 599.686 436.027 591.045 444.218 588.706Z"
     id="path13" />
  <path
     fill="#24CFE3"
     d="M872.327 478.203C878.32 478.047 886.621 486.289 884.866 491.468C884.637 491.429 884.405 491.388 884.173 491.347C880.712 490.736 876.996 490.08 874.677 493.617C869.283 501.846 868.612 521.025 876.957 527.657C878.643 528.997 881.133 528.33 883.349 527.736C883.943 527.577 884.518 527.423 885.052 527.314C885.116 528.893 884.516 530.196 883.862 531.613C883.721 531.919 883.577 532.231 883.437 532.551C866.499 565.425 846.741 495.039 872.327 478.203Z"
     id="path14" />
  <path
     fill="#0B90AE"
     d="M747.546 314.529C750.493 313.554 753.737 314.237 756.04 316.317C758.344 318.397 759.353 321.554 758.683 324.585C758.013 327.616 755.767 330.053 752.801 330.968C748.28 332.363 743.478 329.857 742.037 325.35C740.596 320.843 743.054 316.016 747.546 314.529Z"
     id="path15" />
  
  
  
  
  
  
  
  
  
  <path
     fill="#E2B655"
     d="M576.789 266.033C577.528 266.369 578.683 266.845 578.909 267.591C581.576 276.532 582.409 285.277 585.631 294.189C590.886 308.726 606.274 307.581 618.554 311.933C619.713 312.344 619.387 312.262 619.824 313.51C610.32 318.435 594.831 317.266 587.817 327.528C581.327 337.022 582.644 351.044 578.457 360.684C574.973 359.349 575.133 354.816 574.28 351.034C569.594 330.241 569.994 321.25 546.314 317.12C542.968 316.536 538.769 315.866 535.885 313.74L535.796 312.37C540.828 309.823 554.388 308.124 560.824 304.321C573.469 296.85 572.546 277.957 576.789 266.033Z"
     id="path29" />
  <path
     fill="#24CFE3"
     d="M660.543 291.169C663.295 290.579 666.152 291.514 668.023 293.617C669.895 295.719 670.492 298.665 669.587 301.331C668.683 303.996 666.416 305.97 663.651 306.499C659.441 307.304 655.367 304.572 654.516 300.371C653.664 296.17 656.352 292.067 660.543 291.169Z"
     id="path30" />
  <path
     fill="#102A40"
     d="M501.611 326.154C505.822 325.078 510.102 327.644 511.138 331.866C512.173 336.087 509.566 340.343 505.334 341.337C501.16 342.319 496.975 339.754 495.953 335.59C494.932 331.425 497.456 327.215 501.611 326.154Z"
     id="path31" />
  <path
     fill="#102A40"
     d="M629.757 356.077C633.82 355.341 637.734 357.956 638.612 361.99C639.489 366.025 637.014 370.029 633.013 371.047C630.296 371.739 627.42 370.893 625.51 368.841C623.601 366.789 622.964 363.859 623.848 361.199C624.733 358.54 626.999 356.576 629.757 356.077Z"
     id="path32" />
</svg>
